<svg width="100%" style="display:block;fill:#0045A5;" clip-rule="evenodd" fill-rule="evenodd" stroke-linejoin="round" stroke-miterlimit="2" version="1.1" viewBox="0 0 163 19" xml:space="preserve">
    <g transform="translate(-135.45 -1314.2)">
        <g transform="translate(11154 -3657.8)">
            <path d="m-11010 4984.7-3.3-5.6c-0.2 0.06-0.5 0.1-0.8 0.1-0.5 0-1-0.1-1.4-0.29-0.4-0.18-0.8-0.44-1.2-0.77-0.3-0.33-0.6-0.72-0.7-1.15-0.2-0.45-0.3-0.93-0.3-1.41s0.1-0.96 0.3-1.41c0.1-0.43 0.4-0.82 0.7-1.15 0.4-0.33 0.8-0.59 1.2-0.77 0.4-0.19 0.9-0.29 1.4-0.29s1 0.1 1.4 0.29c0.4 0.18 0.8 0.44 1.1 0.77 0.4 0.33 0.6 0.72 0.8 1.15 0.2 0.45 0.3 0.93 0.3 1.41 0 0.49-0.1 0.96-0.3 1.41-0.2 0.43-0.4 0.82-0.8 1.15l3.3 5.58-1.7 0.98zm-4.1-10.77c-0.9 0-1.7 0.74-1.7 1.65s0.8 1.65 1.7 1.65 1.6-0.74 1.6-1.65-0.7-1.65-1.6-1.65z" fill-rule="nonzero"></path>
        </g>
        <g transform="translate(11164 -3657.8)">
            <path d="m-11016 4984.8-1.7-0.99 3.2-5.64c-0.3-0.29-0.5-0.64-0.7-1.02-0.1-0.39-0.2-0.81-0.3-1.24 0-0.48 0.1-0.97 0.2-1.42 0.2-0.44 0.4-0.85 0.7-1.2s0.7-0.64 1.1-0.86c0.4-0.21 0.9-0.34 1.4-0.38 0.1 0 0.2-0.01 0.2-0.01 1 0 1.8 0.35 2.5 0.97 0.7 0.63 1.1 1.48 1.1 2.4 0.1 0.48 0 0.97-0.1 1.43-0.2 0.44-0.4 0.84-0.7 1.19-0.3 0.36-0.7 0.65-1.1 0.86-0.5 0.22-0.9 0.35-1.4 0.38-0.1 0.01-0.2 0.01-0.3 0.01-0.3 0-0.6-0.04-0.9-0.12l-3.2 5.64zm4.1-10.78c-0.9 0.01-1.6 0.75-1.6 1.66s0.7 1.65 1.6 1.65 1.7-0.74 1.7-1.65-0.8-1.65-1.7-1.66z" fill-rule="nonzero"></path>
        </g>
        <g transform="translate(11160 -3646.8)">
            <path d="m-11014 4979.2c-0.5 0-1-0.1-1.4-0.29-0.5-0.18-0.8-0.44-1.2-0.77-0.3-0.33-0.6-0.72-0.8-1.15-0.1-0.45-0.2-0.93-0.2-1.41 0-0.49 0.1-0.97 0.2-1.41 0.2-0.43 0.5-0.82 0.8-1.15 0.4-0.33 0.7-0.59 1.2-0.78 0.4-0.18 0.9-0.28 1.4-0.28s0.9 0.1 1.4 0.28c0.4 0.19 0.8 0.45 1.1 0.78 0.4 0.33 0.6 0.72 0.8 1.15 0.2 0.44 0.3 0.92 0.3 1.41 0 0.48-0.1 0.96-0.3 1.41-0.2 0.43-0.4 0.82-0.8 1.15-0.3 0.33-0.7 0.59-1.1 0.77-0.5 0.19-0.9 0.29-1.4 0.29zm0-5.28c-0.9 0.01-1.7 0.75-1.7 1.66s0.8 1.65 1.7 1.65 1.6-0.75 1.6-1.65c0-0.91-0.7-1.65-1.6-1.66z" fill-rule="nonzero"></path>
        </g>
        <g transform="translate(156.33 1436.5)">
            <path d="m10.458-109.28v-11.415h4.386c0.814-6e-3 1.623 0.143 2.381 0.44 0.71 0.275 1.361 0.685 1.916 1.207 0.542 0.517 0.975 1.138 1.272 1.826 0.312 0.715 0.47 1.487 0.465 2.267 5e-3 0.769-0.153 1.531-0.465 2.234-0.299 0.679-0.732 1.291-1.272 1.8-0.557 0.518-1.207 0.925-1.916 1.2-0.758 0.297-1.567 0.446-2.381 0.44l-4.386 1e-3zm4.37-9.311h-2.006v7.207h2.006c0.484 3e-3 0.964-0.091 1.411-0.277 0.428-0.177 0.818-0.434 1.149-0.758 0.328-0.323 0.588-0.708 0.766-1.133 0.186-0.443 0.28-0.919 0.277-1.4 4e-3 -0.492-0.09-0.98-0.277-1.435-0.176-0.433-0.437-0.827-0.766-1.158-0.329-0.328-0.72-0.588-1.149-0.766-0.447-0.186-0.927-0.28-1.411-0.277v-3e-3zm14.972 8.251c-0.478 0.399-1.022 0.713-1.606 0.929-0.59 0.202-1.21 0.301-1.834 0.293-0.617 5e-3 -1.228-0.112-1.8-0.342-0.538-0.214-1.031-0.53-1.451-0.929-0.411-0.396-0.738-0.87-0.962-1.394-0.236-0.548-0.356-1.14-0.351-1.737-4e-3 -0.59 0.11-1.174 0.334-1.72 0.213-0.522 0.526-0.998 0.921-1.4 0.398-0.402 0.872-0.72 1.394-0.938 0.544-0.229 1.129-0.346 1.72-0.342 0.576-4e-3 1.146 0.115 1.671 0.351 0.505 0.226 0.959 0.55 1.337 0.954 0.385 0.419 0.685 0.909 0.881 1.443 0.216 0.582 0.324 1.198 0.318 1.818v0.587h-6.331c0.141 0.516 0.451 0.97 0.881 1.288 0.442 0.328 0.981 0.5 1.532 0.489 0.356 3e-3 0.709-0.058 1.044-0.179 0.309-0.109 0.593-0.282 0.832-0.506l1.47 1.335zm-3.685-5.74c-0.482-0.01-0.952 0.155-1.321 0.465-0.379 0.326-0.647 0.762-0.766 1.248h4.158c-0.128-0.479-0.398-0.908-0.775-1.231-0.359-0.315-0.822-0.487-1.299-0.482h3e-3zm13.143 5.74c-0.478 0.399-1.022 0.713-1.606 0.929-0.59 0.203-1.211 0.302-1.835 0.294-0.617 5e-3 -1.228-0.112-1.8-0.342-0.538-0.214-1.031-0.53-1.451-0.929-0.411-0.396-0.738-0.87-0.962-1.394-0.236-0.548-0.356-1.14-0.351-1.737-4e-3 -0.59 0.11-1.174 0.334-1.72 0.213-0.522 0.526-0.998 0.921-1.4 0.398-0.402 0.872-0.72 1.394-0.938 0.545-0.229 1.13-0.346 1.721-0.342 0.576-4e-3 1.146 0.115 1.671 0.351 0.505 0.226 0.959 0.55 1.337 0.954 0.385 0.419 0.685 0.909 0.881 1.443 0.216 0.582 0.324 1.198 0.318 1.818v0.587h-6.33c0.141 0.516 0.451 0.97 0.881 1.288 0.442 0.328 0.981 0.5 1.532 0.489 0.356 3e-3 0.709-0.058 1.044-0.179 0.309-0.109 0.593-0.282 0.832-0.506l1.469 1.334zm-3.685-5.74c-0.482-0.01-0.952 0.155-1.321 0.465-0.379 0.326-0.647 0.762-0.766 1.248h4.158c-0.128-0.479-0.398-0.908-0.775-1.231-0.359-0.315-0.822-0.487-1.299-0.482h3e-3zm5.463 10.208v-11.9h2.2v0.7c0.335-0.27 0.716-0.477 1.125-0.611 0.416-0.135 0.851-0.202 1.288-0.2 0.58-4e-3 1.155 0.113 1.688 0.342 0.514 0.219 0.982 0.535 1.378 0.929 0.395 0.397 0.708 0.868 0.921 1.386 0.225 0.543 0.338 1.125 0.334 1.712 4e-3 0.588-0.112 1.171-0.342 1.712-0.218 0.517-0.533 0.988-0.929 1.386-0.399 0.396-0.873 0.709-1.394 0.921-0.546 0.224-1.13 0.338-1.72 0.334-0.411 0-0.82-0.057-1.215-0.171-0.389-0.112-0.76-0.28-1.1-0.5v3.962l-2.234-2e-3zm4.256-10.11c-0.384-4e-3 -0.766 0.063-1.125 0.2-0.341 0.131-0.648 0.336-0.9 0.6v3.343c0.254 0.249 0.557 0.443 0.889 0.571 0.361 0.143 0.745 0.215 1.133 0.212 0.659 0.015 1.296-0.242 1.761-0.709 0.472-0.459 0.732-1.095 0.717-1.753 0.015-0.66-0.249-1.297-0.726-1.753-0.464-0.464-1.097-0.721-1.753-0.709l4e-3 -2e-3zm9.148-4.713h2.25l5.675 7.387v-7.387h2.218v11.415h-2.091l-5.822-7.631v7.631h-2.233l3e-3 -11.415zm19.519 10.355c-0.478 0.399-1.022 0.713-1.606 0.929-0.59 0.203-1.21 0.302-1.834 0.294-0.617 5e-3 -1.228-0.112-1.8-0.342-0.538-0.214-1.031-0.53-1.451-0.929-0.411-0.396-0.738-0.87-0.962-1.394-0.236-0.548-0.356-1.14-0.351-1.737-4e-3 -0.59 0.11-1.174 0.334-1.72 0.213-0.522 0.526-0.998 0.921-1.4 0.398-0.402 0.872-0.72 1.394-0.938 0.544-0.229 1.129-0.346 1.72-0.342 0.576-4e-3 1.146 0.115 1.671 0.351 0.505 0.226 0.959 0.55 1.337 0.954 0.385 0.419 0.685 0.909 0.881 1.443 0.216 0.582 0.324 1.198 0.318 1.818v0.587h-6.331c0.141 0.516 0.451 0.97 0.881 1.288 0.442 0.328 0.981 0.5 1.532 0.489 0.356 3e-3 0.709-0.058 1.044-0.179 0.309-0.109 0.593-0.282 0.832-0.506l1.47 1.334zm-3.685-5.74c-0.482-0.01-0.952 0.155-1.321 0.465-0.379 0.326-0.647 0.762-0.766 1.248h4.158c-0.128-0.479-0.398-0.908-0.775-1.231-0.359-0.315-0.822-0.487-1.3-0.481l4e-3 -1e-3zm7.631-1.7v4.941c-0.022 0.48 0.152 0.95 0.481 1.3 0.34 0.334 0.804 0.511 1.28 0.489 0.352 6e-3 0.701-0.069 1.019-0.22 0.296-0.144 0.551-0.36 0.742-0.628v-5.887h2.234v8.5h-2.237v-0.685c-0.325 0.271-0.695 0.484-1.093 0.628-0.417 0.149-0.857 0.223-1.3 0.22-0.901 0.03-1.776-0.315-2.413-0.954-0.636-0.649-0.978-1.53-0.946-2.438v-5.267l2.233 1e-3zm7.338 8.5v-8.5h2.234v0.929c0.256-0.356 0.595-0.644 0.987-0.84 0.399-0.193 0.837-0.291 1.28-0.285 0.183 7e-3 0.365 0.026 0.546 0.057 0.135 0.023 0.265 0.07 0.383 0.139v1.957c-0.172-0.079-0.352-0.136-0.538-0.171-0.198-0.038-0.399-0.057-0.6-0.057-0.422-4e-3 -0.838 0.109-1.2 0.326-0.371 0.225-0.669 0.554-0.856 0.946v5.5l-2.236-1e-3zm5.674-4.24c-5e-3 -0.597 0.115-1.189 0.351-1.737 0.226-0.525 0.553-1.001 0.962-1.4 0.416-0.403 0.906-0.721 1.443-0.938 0.564-0.23 1.168-0.346 1.777-0.342 0.609-4e-3 1.213 0.112 1.777 0.342 0.537 0.217 1.027 0.535 1.443 0.938 0.409 0.399 0.736 0.875 0.962 1.4 0.236 0.548 0.356 1.14 0.351 1.737 5e-3 0.597-0.115 1.189-0.351 1.737-0.224 0.524-0.551 0.998-0.962 1.394-0.418 0.398-0.908 0.713-1.443 0.929-0.564 0.23-1.169 0.346-1.778 0.342-0.609 4e-3 -1.213-0.112-1.777-0.342-0.535-0.216-1.025-0.531-1.443-0.929-0.411-0.396-0.738-0.87-0.962-1.394-0.236-0.548-0.356-1.14-0.351-1.737h1e-3zm4.533 2.462c0.631 9e-3 1.236-0.252 1.663-0.717 0.452-0.467 0.699-1.095 0.685-1.745 0.016-0.655-0.231-1.289-0.685-1.761-0.427-0.465-1.032-0.726-1.663-0.717-0.631-9e-3 -1.236 0.252-1.663 0.717-0.454 0.472-0.701 1.106-0.685 1.761-0.014 0.649 0.233 1.278 0.685 1.744 0.426 0.465 1.032 0.727 1.663 0.718zm5.74 1.777v-8.5h2.234v0.669c0.322-0.269 0.689-0.479 1.084-0.62 0.418-0.145 0.858-0.217 1.3-0.212 0.9-0.031 1.774 0.312 2.413 0.946 0.636 0.645 0.979 1.525 0.946 2.43v5.283h-2.234v-4.957c0.021-0.477-0.153-0.942-0.481-1.288-0.34-0.334-0.804-0.511-1.28-0.489-0.346-5e-3 -0.688 0.071-1 0.22-0.296 0.144-0.551 0.36-0.742 0.628v5.887l-2.24 3e-3zm12.768 0v-11.415h2.364v9.327h6.245v2.087l-8.609 1e-3zm12.621 0.147c-0.808 0.035-1.601-0.223-2.234-0.726-0.564-0.459-0.884-1.156-0.864-1.883-0.029-0.746 0.321-1.458 0.929-1.892 0.758-0.496 1.656-0.736 2.56-0.685 0.35 0 0.699 0.028 1.044 0.082 0.348 0.055 0.692 0.137 1.027 0.245v-0.6c0.029-0.42-0.14-0.831-0.457-1.109-0.389-0.276-0.862-0.408-1.337-0.375-0.395 5e-3 -0.787 0.063-1.166 0.171-0.489 0.14-0.966 0.317-1.427 0.53l-0.815-1.647c0.621-0.289 1.268-0.519 1.932-0.685 0.606-0.15 1.227-0.226 1.851-0.228 0.959-0.059 1.907 0.234 2.666 0.823 0.654 0.589 1.005 1.445 0.954 2.324v5.511h-2.2v-0.587c-0.346 0.244-0.728 0.431-1.133 0.554-0.432 0.124-0.88 0.185-1.329 0.179l-1e-3 -2e-3zm-0.962-2.658c-6e-3 0.315 0.155 0.61 0.424 0.775 0.338 0.205 0.73 0.304 1.125 0.285 0.345 3e-3 0.688-0.044 1.019-0.139 0.304-0.09 0.592-0.225 0.856-0.4v-1.272c-0.276-0.11-0.563-0.189-0.856-0.236-0.31-0.05-0.624-0.074-0.938-0.073-0.419-0.024-0.836 0.076-1.2 0.285-0.273 0.162-0.439 0.459-0.433 0.776l3e-3 -1e-3zm16.095-1.729c4e-3 0.588-0.112 1.171-0.342 1.712-0.218 0.517-0.533 0.988-0.929 1.386-0.399 0.396-0.873 0.709-1.394 0.921-0.546 0.224-1.13 0.338-1.72 0.334-0.419 1e-3 -0.837-0.06-1.239-0.179-0.392-0.115-0.765-0.285-1.109-0.506v0.571h-2.2v-11.415l2.234-0.489v4.077c0.339-0.251 0.716-0.447 1.117-0.579 0.408-0.135 0.835-0.202 1.264-0.2 0.58-4e-3 1.155 0.113 1.688 0.342 0.514 0.219 0.982 0.535 1.378 0.929 0.395 0.397 0.708 0.868 0.921 1.386 0.225 0.543 0.338 1.125 0.334 1.712l-3e-3 -2e-3zm-4.68-2.462c-0.384-4e-3 -0.766 0.063-1.125 0.2-0.341 0.131-0.648 0.336-0.9 0.6v3.343c0.254 0.249 0.557 0.443 0.889 0.571 0.361 0.143 0.745 0.215 1.133 0.212 0.659 0.015 1.296-0.242 1.761-0.709 0.472-0.459 0.732-1.095 0.717-1.753 0.015-0.66-0.249-1.297-0.726-1.753-0.463-0.465-1.096-0.721-1.752-0.71l3e-3 -1e-3z" fill-rule="nonzero"></path>
        </g>
    </g>
    </svg>